<svg xmlns="http://www.w3.org/2000/svg" version="1.1" xmlns:xlink="http://www.w3.org/1999/xlink" xmlns:svgjs="http://svgjs.dev/svgjs" width="1000" height="1000" viewBox="0 0 1000 1000"><rect width="1000" height="1000" fill="#ffffff"></rect><g transform="matrix(0.7,0,0,0.7,149.90044910179654,149.90044910179637)"><svg viewBox="0 0 334 334" data-background-color="#ffffff" preserveAspectRatio="xMidYMid meet" height="1000" width="1000" xmlns="http://www.w3.org/2000/svg" xmlns:xlink="http://www.w3.org/1999/xlink"><g id="tight-bounds" transform="matrix(1,0,0,1,0.04749999999998522,0.04750000000001364)"><svg viewBox="0 0 333.90454557049503 333.90454557049503" height="333.90454557049503" width="333.90454557049503"><g><svg></svg></g><g><svg viewBox="0 0 333.90454557049503 333.90454557049503" height="333.90454557049503" width="333.90454557049503"><g><path d="M0 166.952c0-92.205 74.747-166.952 166.952-166.952 92.205 0 166.952 74.747 166.953 166.952 0 92.205-74.747 166.952-166.953 166.953-92.205 0-166.952-74.747-166.952-166.953zM166.952 326.548c88.142 0 159.596-71.454 159.596-159.596 0-88.142-71.454-159.596-159.596-159.596-88.142 0-159.596 71.454-159.596 159.596 0 88.142 71.454 159.596 159.596 159.596z" data-fill-palette-color="tertiary" fill="#000000" stroke="transparent"></path><ellipse rx="160.27418187383762" ry="160.27418187383762" cx="166.95227278524752" cy="166.95227278524752" fill="#000000" stroke="transparent" stroke-width="0" fill-opacity="1" data-fill-palette-color="tertiary"></ellipse></g><g transform="matrix(1,0,0,1,113.8462699730523,71.17305217166896)"><svg viewBox="0 0 106.21200562439044 191.55844122715712" height="191.55844122715712" width="106.21200562439044"><g><svg viewBox="0 0 106.21200562439044 191.55844122715712" height="191.55844122715712" width="106.21200562439044"><g><svg viewBox="0 0 213.1584412271571 384.4414621100809" height="191.55844122715712" width="106.21200562439044"><g transform="matrix(1,0,0,1,0,164.52845711347737)"><svg viewBox="0 0 213.1584412271571 219.91300499660352" height="219.91300499660352" width="213.1584412271571"><g id="textblocktransform"><svg viewBox="0 0 213.1584412271571 219.91300499660352" height="219.91300499660352" width="213.1584412271571" id="textblock"><g><svg viewBox="0 0 213.1584412271571 163.71102852869436" height="163.71102852869436" width="213.1584412271571"><g transform="matrix(1,0,0,1,0,0)"><svg width="213.1584412271571" viewBox="1 -40.95000076293945 63.80000305175781 49" height="163.71102852869436" data-palette-color="#50a060"><path d="M7.95 0L1 0 9.1-40.5 17-40.5 25.1 0 18.25 0 16.65-9.35 9.6-9.35 7.95 0ZM13.1-31.05L10.35-14.05 15.85-14.05 13.1-31.05ZM50.25 3.2L48.85 8.05Q47.6 7.45 46.17 6.25 44.75 5.05 43.37 3.53 42 2 41 0.5L41 0.5Q40.8 0.55 40.57 0.55 40.35 0.55 40.1 0.55L40.1 0.55Q35.8 0.55 33.25-1.05 30.7-2.65 29.6-5.65 28.5-8.65 28.5-12.75L28.5-12.75 28.5-27.9Q28.5-32 29.6-34.93 30.7-37.85 33.25-39.4 35.8-40.95 40.1-40.95L40.1-40.95Q44.5-40.95 47.05-39.4 49.6-37.85 50.7-34.93 51.8-32 51.8-27.9L51.8-27.9 51.8-12.7Q51.8-9.8 51.25-7.45 50.7-5.1 49.45-3.38 48.2-1.65 46.15-0.7L46.15-0.7Q46.8 0 47.5 0.75 48.2 1.5 48.9 2.15 49.6 2.8 50.25 3.2L50.25 3.2ZM40.1-4.9L40.1-4.9Q41.95-4.9 42.85-5.7 43.75-6.5 44.05-7.9 44.35-9.3 44.35-10.95L44.35-10.95 44.35-29.6Q44.35-31.3 44.05-32.65 43.75-34 42.85-34.77 41.95-35.55 40.1-35.55L40.1-35.55Q38.3-35.55 37.4-34.77 36.5-34 36.22-32.65 35.95-31.3 35.95-29.6L35.95-29.6 35.95-10.95Q35.95-9.3 36.22-7.9 36.5-6.5 37.4-5.7 38.3-4.9 40.1-4.9ZM64.8 0L57.5 0 57.5-40.5 64.8-40.5 64.8 0Z" opacity="1" transform="matrix(1,0,0,1,0,0)" fill="#ffffff" class="wordmark-text-0" data-fill-palette-color="quaternary" id="text-0"></path></svg></g></svg></g><g transform="matrix(1,0,0,1,0,202.35927329963442)"><svg viewBox="0 0 213.1584412271571 17.55373169696911" height="17.55373169696911" width="213.1584412271571"><g transform="matrix(1,0,0,1,0,0)"><svg width="213.1584412271571" viewBox="-4.849999904632568 -35.79999923706055 508.8000183105469 41.89999771118164" height="17.55373169696911" data-palette-color="#50a060"><path d="M36.15-2.15L41.95-2.15 41.95 0 30.8 0 27.3-7.95 9.8-7.95 6.3 0-4.85 0-4.85-2.15 0.95-2.15 15.4-34.95 21.7-34.95 36.15-2.15ZM12.2-13.4L24.9-13.4 18.55-27.8 12.2-13.4ZM37.1-2.15L41.95-2.15 41.95-34.95 47.85-34.95 47.85-2.15 52.7-2.15 52.7 0 37.1 0 37.1-2.15ZM85.5-2.15L90.35-2.15 90.35 0 79.55 0 71.2-11.75 63.45-11.75 63.45 0 52.7 0 52.7-2.15 57.55-2.15 57.55-34.95 70.55-34.95Q78.55-34.95 82-32.25 85.45-29.55 85.45-23.6L85.45-23.6Q85.45-14.95 77.9-12.7L77.9-12.7 85.5-2.15ZM70.8-17.1Q75.8-17.1 77.6-18.65 79.4-20.2 79.4-23.63 79.4-27.05 77.55-28.33 75.7-29.6 70.95-29.6L70.95-29.6 63.45-29.6 63.45-17.1 70.8-17.1ZM89.1-2.15L102.8-2.15 102.8 0 89.1 0 89.1-2.15ZM133.35-2.15L144.8-2.15 144.8 0 126.75 0 126.75 6.1 120.85 6.1 120.85 0 102.8 0 102.8-2.15 114.2-2.15Q110.15-4.55 107.78-8.63 105.4-12.7 105.4-17.75L105.4-17.75Q105.4-25.45 110.7-30.63 116-35.8 123.8-35.8 131.6-35.8 136.9-30.63 142.2-25.45 142.2-17.75L142.2-17.75Q142.2-12.75 139.83-8.63 137.45-4.5 133.35-2.15L133.35-2.15ZM120.85-5.4L120.85-11 126.75-11 126.75-5.4Q130.9-6.4 133.53-9.83 136.15-13.25 136.15-18.13 136.15-23 132.58-26.7 129-30.4 123.8-30.4 118.6-30.4 115.03-26.7 111.45-23 111.45-18.13 111.45-13.25 114.08-9.83 116.7-6.4 120.85-5.4L120.85-5.4ZM172.8-2.15L183.2-2.15 183.2 0 144.8 0 144.8-2.15 155.15-2.15Q149.2-6.3 149.2-15.3L149.2-15.3 149.2-34.95 155.1-34.95 155.1-15.55Q155.1-10.75 157.5-7.95 159.9-5.15 164-5.15 168.1-5.15 170.5-7.95 172.9-10.75 172.9-15.55L172.9-15.55 172.9-34.95 178.8-34.95 178.8-15.3Q178.8-6.25 172.8-2.15L172.8-2.15ZM218.5-2.15L224.3-2.15 224.3 0 213.15 0 209.65-7.95 192.15-7.95 188.65 0 177.5 0 177.5-2.15 183.3-2.15 197.75-34.95 204.05-34.95 218.5-2.15ZM194.55-13.4L207.25-13.4 200.9-27.8 194.55-13.4ZM246.15-2.15L251-2.15 251 0 219.45 0 219.45-2.15 224.3-2.15 224.3-34.95 230.2-34.95 230.2-5.6 246.15-5.6 246.15-2.15ZM247.75-2.15L252.6-2.15 252.6-34.95 258.5-34.95 258.5-2.15 263.35-2.15 263.35 0 247.75 0 247.75-2.15ZM281.4-2.15L293.55-2.15 293.55 0 263.35 0 263.35-2.15 275.5-2.15 275.5-29.55 264.9-29.55 264.9-34.95 292-34.95 292-29.55 281.4-29.55 281.4-2.15ZM293.55-2.15L306.15-2.15 306.15-13.8 293.15-34.95 299.6-34.95 309.15-19.05 318.7-34.95 325.15-34.95 312.15-13.8 312.15-2.15 324.75-2.15 324.75 0 293.55 0 293.55-2.15ZM324.75-2.15L338.45-2.15 338.45 0 324.75 0 324.75-2.15ZM338.45-2.15L343.3-2.15 343.3-34.95 349.2-34.95 349.2-2.15 354.05-2.15 354.05 0 338.45 0 338.45-2.15ZM354.05-2.15L358.9-2.15 358.9-34.95 364.8-34.95 385.1-8.85 385.1-34.95 391-34.95 391-2.15 395.85-2.15 395.85 0 384.6 0 364.8-25.5 364.8 0 354.05 0 354.05-2.15ZM423.4-2.15L434.95-2.15 434.95 0 395.85 0 395.85-2.15 400.7-2.15 400.7-34.95 412.7-34.95Q422.1-34.95 427.15-30.38 432.2-25.8 432.2-17.5L432.2-17.5Q432.2-6.35 423.4-2.15L423.4-2.15ZM426.25-17.5L426.25-17.5Q426.25-29.5 412.5-29.5L412.5-29.5 406.6-29.5 406.6-5.55 413.15-5.55Q419.5-5.55 422.88-8.58 426.25-11.6 426.25-17.5ZM434.95-2.15L439.8-2.15 439.8-34.95 464.35-34.95 464.35-29.4 445.7-29.4 445.7-20.15 462.45-20.15 462.45-14.9 445.7-14.9 445.7-5.55 464.95-5.55 464.95-2.15 469.8-2.15 469.8 0 434.95 0 434.95-2.15ZM475.75 0L465 0 465-2.15 469.8-2.15 480.4-17.95 469.25-34.95 476.55-34.95 484.35-23.15 484.6-23.15 492.4-34.95 499.7-34.95 488.55-17.95 499.1-2.15 503.95-2.15 503.95 0 493.2 0 484.6-13.15 484.35-13.15 475.75 0Z" opacity="1" transform="matrix(1,0,0,1,0,0)" fill="#ffffff" class="slogan-text-1" data-fill-palette-color="quaternary" id="text-1"></path></svg></g></svg></g></svg></g></svg></g><g transform="matrix(1,0,0,1,40.713262274387006,0)"><svg viewBox="0 0 131.7319166783831 125.88021234253732" height="125.88021234253732" width="131.7319166783831"><g><svg xmlns:x="http://ns.adobe.com/Extensibility/1.0/" xmlns:i="http://ns.adobe.com/AdobeIllustrator/10.0/" xmlns:graph="http://ns.adobe.com/Graphs/1.0/" xmlns="http://www.w3.org/2000/svg" xmlns:xlink="http://www.w3.org/1999/xlink" version="1.1" x="0" y="0" viewBox="3.876999855041504 3.11899995803833 92.86100769042969 88.73600006103516" enable-background="new 0 0 101 101" xml:space="preserve" height="125.88021234253732" width="131.7319166783831" class="icon-icon-0" data-fill-palette-color="quaternary" id="icon-0"><g fill="#50a060" data-fill-palette-color="quaternary"><circle cx="41.439" cy="7.592" r="4.5" fill="#ffffff" data-fill-palette-color="quaternary"></circle><path d="M91.181 21.932c-3.394-3.396-8.837-3.479-12.346-0.273-0.267-1.136-0.646-2.248-1.138-3.324 0.863-0.327 1.675-0.832 2.37-1.527 2.615-2.616 2.619-6.867-0.004-9.486-2.619-2.619-6.867-2.619-9.486 0-0.672 0.671-1.168 1.45-1.495 2.28-6.638-3.139-14.804-1.982-20.293 3.506-1.401 1.4-2.507 2.979-3.347 4.658-3.35-1.679-7.534-1.127-10.329 1.668-1.915 1.914-2.772 4.479-2.589 6.981 2.497-0.138 5.296-0.232 8.281-0.232 6.828 0 12.688 0.511 16.109 0.892-0.002-0.002-0.004-0.003-0.006-0.005-1.746-1.746-1.748-4.578 0-6.324 1.746-1.746 4.578-1.746 6.324 0 1.748 1.746 1.746 4.58 0.002 6.324-0.405 0.405-0.873 0.707-1.368 0.924 3.04 1.255 5.219 4.208 6.14 6.973l4.058 13.08h0.187c4.932 0 8.019 2.936 8.117 7.674 2.197-0.59 4.276-1.735 6.001-3.459 4.307-4.307 5.064-10.817 2.282-15.911 0.915-0.429 1.777-1.011 2.534-1.768C94.675 31.092 94.677 25.426 91.181 21.932z" fill="#ffffff" data-fill-palette-color="quaternary"></path><circle cx="92.266" cy="57.568" r="4.5" fill="#ffffff" data-fill-palette-color="quaternary"></circle><path d="M77.287 62.393c-0.92 0.919-1.509 2.039-1.783 3.218v9.246c0 0.711-0.089 1.408-0.256 2.079 1.519 0.444 3.221 0.088 4.419-1.11 0.598-0.598 0.975-1.326 1.163-2.091 2.092 0.379 4.328-0.237 5.946-1.855 2.616-2.616 2.619-6.867-0.003-9.486C84.154 59.773 79.906 59.773 77.287 62.393z" fill="#ffffff" data-fill-palette-color="quaternary"></path><path d="M45.75 41.546c0-1.381-1.119-2.5-2.5-2.5h-5c-1.381 0-2.5 1.119-2.5 2.5s1.119 2.5 2.5 2.5h5C44.631 44.046 45.75 42.927 45.75 41.546z" fill="#ffffff" data-fill-palette-color="quaternary"></path><path d="M72.504 66.356v-6.601c3-0.465 4.373-1.885 4.373-4.305 0-2.762-1.865-4.405-4.627-4.405h-3.134l-4.905-15.347c-0.722-2.166-2.608-4.042-4.869-4.354-0.334-0.047-8.278-1.288-18.537-1.288s-18.203 1.011-18.537 1.056c-2.261 0.314-4.147 2.441-4.869 4.607l-4.916 15.326H9.25c-2.762 0-5.373 1.644-5.373 4.405s2.627 4.404 4.627 4.404v6.501 8.5c0 2.467 1.576 4.564 4.014 4.941 0.079 0.012 0.986 0.064 0.986 0.145v6.914c0 2.762 2.238 5 5 5s5-2.238 5-5v-5.781c5 0.42 10.562 0.781 16.666 0.781 5.918 0 12.334-0.34 16.334-0.742v5.742c0 2.762 2.238 5 5 5s5-2.238 5-5v-6.832c1-0.127 1.493-0.211 1.597-0.227 2.438-0.377 4.403-2.475 4.403-4.941V66.356zM15.457 62.611c1.746-1.746 4.58-1.746 6.325 0 1.747 1.747 1.747 4.58 0.001 6.325-1.747 1.747-4.579 1.747-6.326 0C13.711 67.19 13.709 64.358 15.457 62.611zM18.06 52.227l5.032-15.176c0 0 7.75-1.143 17.713-1.143s17.713 1.143 17.713 1.143l4.865 14.672h-0.001l0.151 0.457c-4.975-0.594-13.046-1.324-22.729-1.324C31.015 50.855 22.911 51.625 18.06 52.227zM54.512 71.938c-0.211 1.365-1.493 2.295-2.852 2.09-0.054-0.008-5.352-0.814-11.009-0.814-5.675 0-10.956 0.807-11.008 0.814-1.357 0.209-2.641-0.723-2.854-2.088-0.211-1.365 0.725-2.643 2.09-2.854 0.23-0.035 5.717-0.873 11.772-0.873 6.054 0 11.542 0.838 11.772 0.873C53.787 69.297 54.722 70.574 54.512 71.938zM59.275 68.937c-1.746-1.746-1.748-4.578 0-6.325 1.746-1.746 4.579-1.746 6.324 0 1.748 1.747 1.747 4.58 0.002 6.325C63.854 70.684 61.021 70.684 59.275 68.937z" fill="#ffffff" data-fill-palette-color="quaternary"></path></g></svg></g></svg></g><g></g></svg></g></svg></g></svg></g></svg></g><defs></defs></svg><rect width="333.90454557049503" height="333.90454557049503" fill="none" stroke="none" visibility="hidden"></rect></g></svg></g></svg>